<svg id="Layer_1" data-name="Layer 1" xmlns="http://www.w3.org/2000/svg" xmlns:xlink="http://www.w3.org/1999/xlink" viewBox="0 0 600 500"><defs><style>.cls-1{opacity:0.2;}.cls-2{fill:#98dba1;}.cls-3{fill:#80d2fe;}.cls-4{fill:#92bbff;}.cls-5{fill:#b1f0ef;}.cls-6{fill:#fdd499;}.cls-7{fill:#ff8080;}.cls-8{fill:#f8f9fb;}.cls-9{fill:#6fcc7c;}.cls-10{fill:#9eecea;}.cls-11{opacity:0.3;fill:url(#linear-gradient);}.cls-12{fill:#fff;}</style><linearGradient id="linear-gradient" x1="265.63" y1="52.1" x2="360.82" y2="192.62" gradientTransform="translate(-53.15 31.78) rotate(2.84)" gradientUnits="userSpaceOnUse"><stop offset="0" stop-color="#f99400"/><stop offset="0.09" stop-color="#f99708" stop-opacity="0.97"/><stop offset="0.22" stop-color="#faa01e" stop-opacity="0.88"/><stop offset="0.38" stop-color="#fbaf41" stop-opacity="0.75"/><stop offset="0.57" stop-color="#fcc472" stop-opacity="0.55"/><stop offset="0.78" stop-color="#fddeb2" stop-opacity="0.3"/><stop offset="1" stop-color="#fffefd" stop-opacity="0.01"/><stop offset="1" stop-color="#fff" stop-opacity="0"/></linearGradient></defs><title>Search not found</title><g class="cls-1"><circle class="cls-2" cx="161.3" cy="160.95" r="14.03"/><circle class="cls-2" cx="390.02" cy="451.67" r="12.57"/><circle class="cls-3" cx="224.9" cy="441.51" r="26.21"/><circle class="cls-4" cx="508.68" cy="204.02" r="17.39"/><circle class="cls-4" cx="379.29" cy="347.2" r="15.89"/><circle class="cls-5" cx="494.54" cy="312.75" r="11.7"/><circle class="cls-4" cx="114.71" cy="225.65" r="11.7"/><circle class="cls-6" cx="141.54" cy="361.25" r="18.28"/><circle class="cls-6" cx="544.9" cy="380.64" r="17.21"/><circle class="cls-7" cx="194.03" cy="284.52" r="12.8"/><circle class="cls-7" cx="390.34" cy="157.35" r="10.98"/><circle class="cls-5" cx="329.26" cy="65.74" r="16.8"/></g><ellipse class="cls-8" cx="313.66" cy="420.03" rx="196.89" ry="16.78"/><path class="cls-9" d="M358.44,415.75s2.83-9.94-7.58-8.79c0,0-4.1-7.84-12.16-7.14-11.64,1-12,12-11.51,15.89Z"/><path class="cls-3" d="M318.93,410.64s-6.72-102.93-6.11-125.46-7-93.09,8.07-96.05c15.84-3.11,17.46,11.57,18.69,30.79s-2.2,83.45-2.81,111.29-3.29,79.43-3.29,79.43Z"/><path class="cls-3" d="M283.18,187.33c5.38-.34,7.07,6.56,5.93,18-1.38,13.77,20.1,23.54,26.25,23.54l1.23,9.94s-17.6-2.51-30.71-10.45a27.59,27.59,0,0,1-13.51-22.7C272.1,199.71,275.79,187.79,283.18,187.33Z"/><path class="cls-3" d="M386.77,236.25c-5.8,1.1-4.63,8.93-3.46,15.22s-10.1,11-14,11l-.78,6.28s12.42.1,19.41-6.6c3.76-3.6,6.37-7.46,6.45-11.84C394.48,245.73,392.71,235.13,386.77,236.25Z"/><path class="cls-3" d="M330.87,299.7s16.22,1.27,22.64-4.89,1.38-50.67,4.61-59.48c3.4-9.26,15.89-10.76,14.46,15.4s-3.73,57.25-8.87,59.74c-7.32,3.53-27.85,3.07-32.84,2.3S330.87,299.7,330.87,299.7Z"/><path class="cls-3" d="M286.68,265s2.29,71.4,11.57,74.48,26.19,4.83,26.19,4.83l-.16,13s-28,.09-37.95-10.68S260,268.05,264.47,256.61C270,242.69,284.9,245.68,286.68,265Z"/><path class="cls-2" d="M345.82,415.73l-71.94-.09s2.42-14.45,19.2-10.3c0,0,.46-14.32,17.56-14.33,19.26,0,19.2,16.15,19.2,16.15S345,404.22,345.82,415.73Z"/><path class="cls-10" d="M435.19,410.42s-3.66-52.05-3.33-63.45-3.84-47.08,4.4-48.58c8.63-1.57,9.51,5.85,10.18,15.58s-1.2,42.2-1.53,56.28-1.79,40.17-1.79,40.17Z"/><path class="cls-10" d="M441.69,354.31s6.62,1.17,10.12-1.94,2.6-28,5.06-30c2.66-2.11,8.95-5.45,8.17,7.78s-2.73,29.18-5.45,29.57-15.17,1.56-17.9,1.17S441.69,354.31,441.69,354.31Z"/><path class="cls-10" d="M417.61,336.77s1.25,36.11,6.31,37.67,14.27,2.44,14.27,2.44l-.08,6.59s-15.24,0-20.69-5.4-15.15-40.1-11.91-45.55C409.58,325.68,416.44,329,417.61,336.77Z"/><polygon class="cls-11" points="173.51 360.21 189.98 116.93 264.45 73.82 483.21 224.78 173.51 360.21"/><path class="cls-4" d="M136.88,119.41c-4.92-8.47,23.63-34.23,63.76-57.53S277.28,26.53,282.2,35l9.13,15.71c4.92,8.47-23.63,34.23-63.76,57.53S150.93,143.59,146,135.12Z"/><polygon class="cls-4" points="144.92 132.81 102.4 157.43 97.14 148.38 139.67 123.77 144.92 132.81"/><rect class="cls-4" x="34.37" y="157.24" width="75.56" height="23.58" rx="11.79" transform="translate(-75.14 59.11) rotate(-30.15)"/><ellipse class="cls-12" cx="209.27" cy="76.73" rx="76.25" ry="13.29" transform="translate(-10.23 115.48) rotate(-30.15)"/></svg>