<svg id="Layer_1" data-name="Layer 1" xmlns="http://www.w3.org/2000/svg" viewBox="0 0 144 30"><defs><style>.cls-1{opacity:0.9;}.cls-2{fill:#216db3;}.cls-3{fill:#e32327;}.cls-4{fill:#dbdbdb;}</style></defs><g class="cls-1"><path class="cls-2" d="M5.8,15.11a.71.71,0,0,1-.29,0L2.1,13.83a.85.85,0,1,1,.59-1.6l3.4,1.24a.85.85,0,0,1,.51,1.09A.86.86,0,0,1,5.8,15.11Z"/></g><g class="cls-1"><path class="cls-2" d="M25.92,22.44a.93.93,0,0,1-.29-.05l-3.41-1.24a.85.85,0,0,1,.59-1.6l3.4,1.24a.85.85,0,0,1,.51,1.09A.87.87,0,0,1,25.92,22.44Z"/></g><g class="cls-1"><path class="cls-2" d="M22.22,14.4a.85.85,0,0,1-.36-1.62l3.28-1.53a.85.85,0,0,1,1.13.41.86.86,0,0,1-.41,1.13l-3.28,1.53A.94.94,0,0,1,22.22,14.4Z"/></g><g class="cls-1"><path class="cls-2" d="M10.4,10.1a.86.86,0,0,1-.77-.49L8.1,6.32a.85.85,0,0,1,.41-1.13.86.86,0,0,1,1.13.41l1.53,3.29A.86.86,0,0,1,10.76,10,.94.94,0,0,1,10.4,10.1Z"/></g><g class="cls-1"><path class="cls-2" d="M16.94,4.68A.86.86,0,0,1,16.1,4L15.66,1.5a.85.85,0,0,1,1.68-.3l.43,2.48a.83.83,0,0,1-.68,1A.41.41,0,0,1,16.94,4.68Z"/></g><g class="cls-1"><path class="cls-2" d="M20.69,6a.82.82,0,0,1-.65-.3.85.85,0,0,1,.1-1.2l1.93-1.61a.85.85,0,1,1,1.09,1.3L21.23,5.85A.83.83,0,0,1,20.69,6Z"/></g><g class="cls-1"><path class="cls-2" d="M19.45,29.5a.84.84,0,0,1-.77-.49l-1.53-3.28A.85.85,0,1,1,18.69,25l1.53,3.28a.85.85,0,0,1-.41,1.13A.94.94,0,0,1,19.45,29.5Z"/></g><g class="cls-1"><path class="cls-3" d="M20.35,11.77a.84.84,0,0,1-.63-.28.85.85,0,0,1,.06-1.2A3.22,3.22,0,0,0,20.64,9,3.25,3.25,0,0,0,18.7,4.82a3.3,3.3,0,0,0-2.49.11,3.2,3.2,0,0,0-1.68,1.84,3,3,0,0,0-.17,1.54.85.85,0,0,1-1.69.23,5,5,0,0,1,6.61-5.31,5,5,0,0,1,3,6.35,5.08,5.08,0,0,1-1.32,2A.83.83,0,0,1,20.35,11.77Z"/></g><g class="cls-1"><path class="cls-3" d="M14.15,27.05a9.54,9.54,0,0,1-3.33-.59,9.71,9.71,0,0,1-3.31-2,.85.85,0,0,1,0-1.2.84.84,0,0,1,1.2,0,8,8,0,0,0,13.05-3.13,8,8,0,1,0-14.85.65.85.85,0,0,1-1.55.72,10,10,0,0,1-.9-3.63A9.58,9.58,0,0,1,5,14a9.71,9.71,0,0,1,2-3.31,9.52,9.52,0,0,1,3-2.19,9.67,9.67,0,0,1,3.62-.91A9.77,9.77,0,0,1,23,13.19a10,10,0,0,1,.9,3.62,9.63,9.63,0,0,1-.58,3.83,9.68,9.68,0,0,1-5,5.5,9.65,9.65,0,0,1-3.62.9Z"/></g><g class="cls-1"><path class="cls-3" d="M1.05,24.28a.86.86,0,0,1-.77-.49.84.84,0,0,1,.41-1.13L5.74,20.3a.85.85,0,0,1,1.13.41.86.86,0,0,1-.42,1.13l-5,2.36A.94.94,0,0,1,1.05,24.28Z"/></g><path class="cls-4" d="M35.14,22.19V7.51h7.22c2.69,0,4.18,1.68,4.18,3.74A3.3,3.3,0,0,1,44,14.62a3.62,3.62,0,0,1,2.84,3.61c0,2.27-1.52,4-4.27,4Zm8.76-10.5a1.87,1.87,0,0,0-2.07-1.91H37.72v3.81h4.11A1.86,1.86,0,0,0,43.9,11.69Zm.29,6.19a2,2,0,0,0-2.25-2H37.72v4.07h4.22A2,2,0,0,0,44.19,17.88Z"/><path class="cls-4" d="M56.51,22.19V20.78a5.09,5.09,0,0,1-3.77,1.67c-2.28,0-3.41-1.18-3.41-3.36V11.56h2.31v6.69c0,1.65.84,2.16,2.14,2.16A3.54,3.54,0,0,0,56.51,19V11.56h2.31V22.19Z"/><path class="cls-4" d="M61.68,24.92l1.07-1.67a4.12,4.12,0,0,0,3.37,1.36c1.52,0,3.15-.7,3.15-2.88V20.45a4.32,4.32,0,0,1-3.41,1.76c-2.71,0-4.71-2-4.71-5.45s2-5.46,4.71-5.46A4.22,4.22,0,0,1,69.27,13V11.56h2.31V21.64c0,3.83-2.84,4.86-5.46,4.86A6,6,0,0,1,61.68,24.92Zm7.59-6.18v-4a3.43,3.43,0,0,0-2.73-1.43c-1.83,0-3,1.36-3,3.41s1.16,3.41,3,3.41A3.46,3.46,0,0,0,69.27,18.74Z"/><path class="cls-4" d="M76.48,22.19V9.78H72V7.51H83.5V9.78H79.06V22.19Z"/><path class="cls-4" d="M84,22.19V11.56h2.31v1.56a4.54,4.54,0,0,1,3.46-1.8v2.29A3.43,3.43,0,0,0,86.27,15v7.24Z"/><path class="cls-4" d="M98.09,22.19V21.05a4.51,4.51,0,0,1-3.44,1.4A3.53,3.53,0,0,1,91,18.93a3.42,3.42,0,0,1,3.69-3.45,4.41,4.41,0,0,1,3.44,1.36V15.26c0-1.23-1-2-2.49-2a4.37,4.37,0,0,0-3.15,1.34L91.51,13A6.29,6.29,0,0,1,96,11.3c2.36,0,4.43,1,4.43,3.85v7Zm0-2.42V18.16a3.13,3.13,0,0,0-2.53-1.1A2,2,0,0,0,93.29,19a2,2,0,0,0,2.27,1.89A3.1,3.1,0,0,0,98.09,19.77Z"/><path class="cls-4" d="M102.73,16.87a5.33,5.33,0,0,1,5.5-5.57,4.77,4.77,0,0,1,4.07,1.89l-1.52,1.41a2.82,2.82,0,0,0-2.44-1.25,3.2,3.2,0,0,0-3.21,3.52,3.23,3.23,0,0,0,3.21,3.54,2.88,2.88,0,0,0,2.44-1.26l1.52,1.41a4.77,4.77,0,0,1-4.07,1.89A5.33,5.33,0,0,1,102.73,16.87Z"/><path class="cls-4" d="M121.36,22.19l-3.25-4.38-1.48,1.52v2.86h-2.31V7.51h2.31v9.18l4.69-5.13h2.86l-4.42,4.82,4.51,5.81Z"/><path class="cls-4" d="M125.12,16.87a5.38,5.38,0,0,1,5.39-5.57c3.19,0,5.24,2.44,5.24,5.79v.55h-8.21a3.22,3.22,0,0,0,3.39,2.92,4.54,4.54,0,0,0,3-1.16L135,20.91a6.15,6.15,0,0,1-4.31,1.54A5.34,5.34,0,0,1,125.12,16.87Zm5.39-3.68a2.93,2.93,0,0,0-3,2.82h6A2.85,2.85,0,0,0,130.51,13.19Z"/><path class="cls-4" d="M138,22.19V11.56h2.31v1.56a4.54,4.54,0,0,1,3.45-1.8v2.29A3.41,3.41,0,0,0,140.35,15v7.24Z"/></svg>